name Run_200 02_newCOP3_v24.mot																		
datacolumns 19																		
datarows 143																		
range 0.09 0.232																		
endheader																		
                time	   ground_force_vx	   ground_force_vy	 ground_force_vz	   ground_force_px	   ground_force_py	   ground_force_pz	   l_ground_force_vx	  l_ground_force_vy	   l_ground_force_vz	   l_ground_force_px	   l_ground_force_py	   l_ground_force_pz	   ground_torque_x	   ground_torque_y	  ground_torque_z	   l_ground_torque_x	  l_ground_torque_y	 l_ground_torque_z
0.09	0	0	0	0	0	0	57.491402	350.795929	6.324391	0.917627	0	-0.389713	0	0	0	0	3.066723	0
0.091	0	0	0	0	0	0	56.920078	345.458466	6.158898	0.916147	0	-0.389388	0	0	0	0	3.110025	0
0.092	0	0	0	0	0	0	56.327507	339.943604	5.991333	0.914597	0	-0.389047	0	0	0	0	3.151872	0
0.093	0	0	0	0	0	0	55.715763	334.27832	5.823547	0.912989	0	-0.388692	0	0	0	0	3.192146	0
0.094	0	0	0	0	0	0	55.086575	328.485413	5.657333	0.911335	0	-0.388324	0	0	0	0	3.230731	0
0.095	0	0	0	0	0	0	54.441544	322.584991	5.494398	0.909646	0	-0.387948	0	0	0	0	3.267516	0
0.096	0	0	0	0	0	0	53.782291	316.595398	5.33633	0.907933	0	-0.387563	0	0	0	0	3.302393	0
0.097	0	0	0	0	0	0	53.110531	310.533478	5.184579	0.906208	0	-0.387172	0	0	0	0	3.335257	0
0.098	0	0	0	0	0	0	52.428146	304.414978	5.040431	0.904479	0	-0.386776	0	0	0	0	3.366008	0
0.099	0	0	0	0	0	0	51.737175	298.254578	4.904985	0.902755	0	-0.386377	0	0	0	0	3.39455	0
0.1	0	0	0	0	0	0	51.039833	292.065918	4.779146	0.901043	0	-0.385975	0	0	0	0	3.420792	0
0.101	0	0	0	0	0	0	50.338493	285.861664	4.663608	0.899349	0	-0.385571	0	0	0	0	3.444649	0
0.102	0	0	0	0	0	0	49.635624	279.653442	4.558847	0.89768	0	-0.385166	0	0	0	0	3.466038	0
0.103	0	0	0	0	0	0	48.933769	273.451904	4.465126	0.896037	0	-0.384761	0	0	0	0	3.484885	0
0.104	0	0	0	0	0	0	48.235462	267.266663	4.382491	0.894424	0	-0.384354	0	0	0	0	3.501119	0
0.105	0	0	0	0	0	0	47.543156	261.106354	4.310783	0.892843	0	-0.383947	0	0	0	0	3.514676	0
0.106	0	0	0	0	0	0	46.859169	254.978668	4.249649	0.891293	0	-0.38354	0	0	0	0	3.525495	0
0.107	0	0	0	0	0	0	46.185596	248.890381	4.198557	0.889774	0	-0.383132	0	0	0	0	3.533524	0
0.108	0	0	0	0	0	0	45.524265	242.847412	4.156822	0.888285	0	-0.382725	0	0	0	0	3.538714	0
0.109	0	0	0	0	0	0	44.876663	236.854874	4.123621	0.886824	0	-0.382317	0	0	0	0	3.541023	0
0.11	0	0	0	0	0	0	44.243904	230.917099	4.098025	0.885389	0	-0.38191	0	0	0	0	3.540414	0
0.111	0	0	0	0	0	0	43.626717	225.037811	4.079024	0.883978	0	-0.381504	0	0	0	0	3.536854	0
0.112	0	0	0	0	0	0	43.025406	219.220123	4.065557	0.882588	0	-0.3811	0	0	0	0	3.530318	0
0.113	0	0	0	0	0	0	42.439884	213.466644	4.056539	0.881217	0	-0.380699	0	0	0	0	3.520786	0
0.114	0	0	0	0	0	0	41.869663	207.779572	4.050891	0.879864	0	-0.380302	0	0	0	0	3.50824	0
0.115	0	0	0	0	0	0	41.313892	202.160751	4.047566	0.878526	0	-0.37991	0	0	0	0	3.492671	0
0.116	0	0	0	0	0	0	40.771381	196.611755	4.045577	0.877201	0	-0.379525	0	0	0	0	3.474073	0
0.117	0	0	0	0	0	0	40.240639	191.133972	4.044015	0.875889	0	-0.379147	0	0	0	0	3.452446	0
0.118	0	0	0	0	0	0	39.719913	185.728607	4.042073	0.874589	0	-0.378779	0	0	0	0	3.427792	0
0.119	0	0	0	0	0	0	39.20723	180.396835	4.039058	0.873299	0	-0.378422	0	0	0	0	3.400122	0
0.12	0	0	0	0	0	0	38.70042	175.139725	4.03441	0.87202	0	-0.378076	0	0	0	0	3.369449	0
0.121	0	0	0	0	0	0	38.19717	169.958374	4.027701	0.870751	0	-0.377742	0	0	0	0	3.33579	0
0.122	0	0	0	0	0	0	37.695057	164.853897	4.018648	0.869492	0	-0.377421	0	0	0	0	3.299169	0
0.123	0	0	0	0	0	0	37.191563	159.827408	4.007106	0.868243	0	-0.377113	0	0	0	0	3.259612	0
0.124	0	0	0	0	0	0	36.684128	154.880112	3.993072	0.867004	0	-0.376819	0	0	0	0	3.217151	0
0.125	0	0	0	0	0	0	36.170174	150.013214	3.976668	0.865776	0	-0.376537	0	0	0	0	3.171821	0
0.126	0	0	0	0	0	0	35.647148	145.228012	3.95814	0.86456	0	-0.376268	0	0	0	0	3.123663	0
0.127	0	0	0	0	0	0	35.112556	140.525818	3.937835	0.863357	0	-0.376009	0	0	0	0	3.072722	0
0.128	0	0	0	0	0	0	34.564003	135.907959	3.916195	0.86217	0	-0.375761	0	0	0	0	3.019047	0
0.129	0	0	0	0	0	0	33.999237	131.375793	3.893729	0.861	0	-0.375521	0	0	0	0	2.962691	0
0.13	0	0	0	0	0	0	33.416195	126.930664	3.871003	0.859852	0	-0.375287	0	0	0	0	2.903713	0
0.131	0	0	0	0	0	0	32.813053	122.57386	3.848612	0.858729	0	-0.375058	0	0	0	0	2.842175	0
0.132	0	0	0	0	0	0	32.188263	118.306625	3.827164	0.857636	0	-0.374832	0	0	0	0	2.778146	0
0.133	0	0	0	0	0	0	31.540609	114.130127	3.807262	0.856578	0	-0.374606	0	0	0	0	2.711699	0
0.134	0	0	0	0	0	0	30.86923	110.04541	3.78948	0.855559	0	-0.374378	0	0	0	0	2.642909	0
0.135	0	0	0	0	0	0	30.173666	106.053436	3.774347	0.854586	0	-0.374145	0	0	0	0	2.57186	0
0.136	0	0	0	0	0	0	29.453863	102.155006	3.762331	0.853662	0	-0.373906	0	0	0	0	2.498639	0
0.137	0	0	0	0	0	0	28.710196	98.3508	3.753827	0.852795	0	-0.373659	0	0	0	0	2.423339	0
0.138	0	0	0	0	0	0	27.943453	94.641342	3.74914	0.851986	0	-0.373401	0	0	0	0	2.346057	0
0.139	0	0	0	0	0	0	27.154821	91.027031	3.74848	0.85124	0	-0.37313	0	0	0	0	2.266897	0
0.14	0	0	0	0	0	0	26.345858	87.50811	3.751952	0.850559	0	-0.372843	0	0	0	0	2.185967	0
0.141	0	0	0	0	0	0	25.51844	84.084686	3.759555	0.849945	0	-0.37254	0	0	0	0	2.10338	0
0.142	0	0	0	0	0	0	24.674719	80.756721	3.771179	0.849397	0	-0.372216	0	0	0	0	2.019257	0
0.143	0	0	0	0	0	0	23.817047	77.524048	3.786606	0.848915	0	-0.371869	0	0	0	0	1.933722	0
0.144	0	0	0	0	0	0	22.947918	74.38636	3.805515	0.848497	0	-0.371498	0	0	0	0	1.846906	0
0.145	0	0	0	0	0	0	22.069901	71.343201	3.82749	0.84814	0	-0.371097	0	0	0	0	1.758943	0
0.146	0	0	0	0	0	0	21.185564	68.393967	3.852025	0.847842	0	-0.370665	0	0	0	0	1.669977	0
0.147	0	0	0	0	0	0	20.297426	65.53788	3.878538	0.847598	0	-0.370198	0	0	0	0	1.580153	0
0.148	0	0	0	0	0	0	19.407898	62.773994	3.906383	0.847404	0	-0.369691	0	0	0	0	1.489624	0
0.149	0	0	0	0	0	0	18.51923	60.101173	3.934864	0.847256	0	-0.36914	0	0	0	0	1.398547	0
0.15	0	0	0	0	0	0	17.633492	57.518082	3.963246	0.847152	0	-0.368542	0	0	0	0	1.307085	0
0.151	0	0	0	0	0	0	16.752542	55.023178	3.990776	0.847088	0	-0.367892	0	0	0	0	1.215405	0
0.152	0	0	0	0	0	0	15.878019	52.614723	4.016692	0.84706	0	-0.367185	0	0	0	0	1.12368	0
0.153	0	0	0	0	0	0	15.011346	50.290775	4.040243	0.847068	0	-0.366418	0	0	0	0	1.032088	0
0.154	0	0	0	0	0	0	14.153739	48.049206	4.0607	0.847111	0	-0.365586	0	0	0	0	0.940811	0
0.155	0	0	0	0	0	0	13.306231	45.887718	4.077368	0.847187	0	-0.364686	0	0	0	0	0.850033	0
0.156	0	0	0	0	0	0	12.469697	43.80389	4.089601	0.847297	0	-0.363714	0	0	0	0	0.759947	0
0.157	0	0	0	0	0	0	11.644897	41.7952	4.096806	0.847442	0	-0.362667	0	0	0	0	0.670746	0
0.158	0	0	0	0	0	0	10.832505	39.859077	4.098458	0.847625	0	-0.361544	0	0	0	0	0.582627	0
0.159	0	0	0	0	0	0	10.033154	37.99295	4.094096	0.847848	0	-0.360343	0	0	0	0	0.495791	0
0.16	0	0	0	0	0	0	9.247476	36.194309	4.083335	0.848118	0	-0.359061	0	0	0	0	0.410443	0
0.161	0	0	0	0	0	0	8.476132	34.460754	4.065858	0.84844	0	-0.3577	0	0	0	0	0.326787	0
0.162	0	0	0	0	0	0	7.71985	32.790054	4.041423	0.848823	0	-0.35626	0	0	0	0	0.245033	0
0.163	0	0	0	0	0	0	6.979444	31.180204	4.009849	0.849279	0	-0.35474	0	0	0	0	0.165389	0
0.164	0	0	0	0	0	0	6.255833	29.629448	3.971018	0.849823	0	-0.353142	0	0	0	0	0.088069	0
0.165	0	0	0	0	0	0	5.550047	28.136324	3.924862	0.850475	0	-0.351467	0	0	0	0	0.013282	0
0.166	0	0	0	0	0	0	0	0	0	0	0	0	0	0	0	0	0	0
0.167	0	0	0	0	0	0	0	0	0	0	0	0	0	0	0	0	0	0
0.168	0	0	0	0	0	0	0	0	0	0	0	0	0	0	0	0	0	0
0.169	0	0	0	0	0	0	0	0	0	0	0	0	0	0	0	0	0	0
0.17	0	0	0	0	0	0	0	0	0	0	0	0	0	0	0	0	0	0
0.171	0	0	0	0	0	0	0	0	0	0	0	0	0	0	0	0	0	0
0.172	0	0	0	0	0	0	0	0	0	0	0	0	0	0	0	0	0	0
0.173	0	0	0	0	0	0	0	0	0	0	0	0	0	0	0	0	0	0
0.174	0	0	0	0	0	0	0	0	0	0	0	0	0	0	0	0	0	0
0.175	0	0	0	0	0	0	0	0	0	0	0	0	0	0	0	0	0	0
0.176	0	0	0	0	0	0	0	0	0	0	0	0	0	0	0	0	0	0
0.177	0	0	0	0	0	0	0	0	0	0	0	0	0	0	0	0	0	0
0.178	0	0	0	0	0	0	0	0	0	0	0	0	0	0	0	0	0	0
0.179	0	0	0	0	0	0	0	0	0	0	0	0	0	0	0	0	0	0
0.18	0	0	0	0	0	0	0	0	0	0	0	0	0	0	0	0	0	0
0.181	0	0	0	0	0	0	0	0	0	0	0	0	0	0	0	0	0	0
0.182	0	0	0	0	0	0	0	0	0	0	0	0	0	0	0	0	0	0
0.183	0	0	0	0	0	0	0	0	0	0	0	0	0	0	0	0	0	0
0.184	0	0	0	0	0	0	0	0	0	0	0	0	0	0	0	0	0	0
0.185	0	0	0	0	0	0	0	0	0	0	0	0	0	0	0	0	0	0
0.186	0	0	0	0	0	0	0	0	0	0	0	0	0	0	0	0	0	0
0.187	0	0	0	0	0	0	0	0	0	0	0	0	0	0	0	0	0	0
0.188	0	0	0	0	0	0	0	0	0	0	0	0	0	0	0	0	0	0
0.189	0	0	0	0	0	0	0	0	0	0	0	0	0	0	0	0	0	0
0.19	0	0	0	0	0	0	0	0	0	0	0	0	0	0	0	0	0	0
0.191	0	0	0	0	0	0	0	0	0	0	0	0	0	0	0	0	0	0
0.192	0	0	0	0	0	0	0	0	0	0	0	0	0	0	0	0	0	0
0.193	0	0	0	0	0	0	0	0	0	0	0	0	0	0	0	0	0	0
0.194	0	0	0	0	0	0	0	0	0	0	0	0	0	0	0	0	0	0
0.195	0	0	0	0	0	0	0	0	0	0	0	0	0	0	0	0	0	0
0.196	0	0	0	0	0	0	0	0	0	0	0	0	0	0	0	0	0	0
0.197	0	0	0	0	0	0	0	0	0	0	0	0	0	0	0	0	0	0
0.198	0	0	0	0	0	0	0	0	0	0	0	0	0	0	0	0	0	0
0.199	0	0	0	0	0	0	0	0	0	0	0	0	0	0	0	0	0	0
0.2	-10.221288	28.216019	-4.535874	1.131212	0	-0.274966	0	0	0	0	0	0	0	0.323981	0	0	0	0
0.201	-10.920164	31.571152	-5.145452	1.133596	0	-0.275446	0	0	0	0	0	0	0	0.43336	0	0	0	0
0.202	-11.626731	35.332184	-5.787385	1.135488	0	-0.275996	0	0	0	0	0	0	0	0.547424	0	0	0	0
0.203	-12.329054	39.526043	-6.46205	1.136982	0	-0.276592	0	0	0	0	0	0	0	0.665913	0	0	0	0
0.204	-13.013507	44.179932	-7.169636	1.138152	0	-0.277217	0	0	0	0	0	0	0	0.788548	0	0	0	0
0.205	-13.664956	49.321178	-7.910123	1.139055	0	-0.277855	0	0	0	0	0	0	0	0.915031	0	0	0	0
0.206	-14.267003	54.977032	-8.683258	1.139734	0	-0.278497	0	0	0	0	0	0	0	1.045043	0	0	0	0
0.207	-14.802298	61.174465	-9.488539	1.140223	0	-0.279137	0	0	0	0	0	0	0	1.178249	0	0	0	0
0.208	-15.252911	67.939972	-10.325191	1.140546	0	-0.279768	0	0	0	0	0	0	0	1.314296	0	0	0	0
0.209	-15.600763	75.299339	-11.192151	1.140719	0	-0.280389	0	0	0	0	0	0	0	1.452816	0	0	0	0
0.21	-15.828103	83.277458	-12.088043	1.140756	0	-0.280999	0	0	0	0	0	0	0	1.593424	0	0	0	0
0.211	-15.918012	91.898056	-13.011173	1.140666	0	-0.281596	0	0	0	0	0	0	0	1.735723	0	0	0	0
0.212	-15.854936	101.183502	-13.959508	1.140456	0	-0.282182	0	0	0	0	0	0	0	1.879305	0	0	0	0
0.213	-15.625212	111.154533	-14.93067	1.140131	0	-0.282757	0	0	0	0	0	0	0	2.02375	0	0	0	0
0.214	-15.217584	121.83004	-15.921933	1.139695	0	-0.283323	0	0	0	0	0	0	0	2.168628	0	0	0	0
0.215	-14.623671	133.226807	-16.930218	1.139153	0	-0.283881	0	0	0	0	0	0	0	2.313505	0	0	0	0
0.216	-13.838393	145.359222	-17.952101	1.138508	0	-0.284433	0	0	0	0	0	0	0	2.457938	0	0	0	0
0.217	-12.860315	158.23909	-18.983818	1.137765	0	-0.284981	0	0	0	0	0	0	0	2.601484	0	0	0	0
0.218	-11.69191	171.875229	-20.021288	1.13693	0	-0.285526	0	0	0	0	0	0	0	2.743695	0	0	0	0
0.219	-10.339721	186.273239	-21.060125	1.136009	0	-0.28607	0	0	0	0	0	0	0	2.884126	0	0	0	0
0.22	-8.814423	201.435181	-22.095678	1.135009	0	-0.286612	0	0	0	0	0	0	0	3.022334	0	0	0	0
0.221	-7.130767	217.359161	-23.123058	1.133938	0	-0.287155	0	0	0	0	0	0	0	3.15788	0	0	0	0
0.222	-5.307432	234.039047	-24.137186	1.132805	0	-0.287697	0	0	0	0	0	0	0	3.29033	0	0	0	0
0.223	-3.366749	251.463974	-25.132837	1.131621	0	-0.28824	0	0	0	0	0	0	0	3.419263	0	0	0	0
0.224	-1.334349	269.618042	-26.104704	1.130395	0	-0.288783	0	0	0	0	0	0	0	3.544265	0	0	0	0
0.225	0.761286	288.479706	-27.047453	1.12914	0	-0.289326	0	0	0	0	0	0	0	3.664936	0	0	0	0
0.226	2.889352	308.021576	-27.955799	1.127867	0	-0.289867	0	0	0	0	0	0	0	3.78089	0	0	0	0
0.227	5.017303	328.209778	-28.82457	1.126587	0	-0.290405	0	0	0	0	0	0	0	3.891758	0	0	0	0
0.228	7.111483	349.003723	-29.648792	1.125312	0	-0.290939	0	0	0	0	0	0	0	3.99719	0	0	0	0
0.229	9.13778	370.355652	-30.423767	1.124054	0	-0.291467	0	0	0	0	0	0	0	4.096854	0	0	0	0
0.23	11.062297	392.210571	-31.145153	1.122824	0	-0.291988	0	0	0	0	0	0	0	4.190443	0	0	0	0
0.231	12.851992	414.506012	-31.80904	1.121633	0	-0.292501	0	0	0	0	0	0	0	4.277669	0	0	0	0
0.232	14.475312	437.172089	-32.412045	1.120489	0	-0.293002	0	0	0	0	0	0	0	4.358272	0	0	0	0
